<?xml version="1.0" encoding="UTF-8" standalone="no"?>
<svg
   width="375"
   viewBox="0 0 375 375"
   height="375"
   version="1.0"
   id="svg119"
   sodipodi:docname="PMATO3.svg"
   inkscape:version="1.1.2 (b8e25be833, 2022-02-05)"
   inkscape:export-filename="C:\Users\ranie\Downloads\PMATO3.png"
   inkscape:export-xdpi="300.03201"
   inkscape:export-ydpi="300.03201"
   xmlns:inkscape="http://www.inkscape.org/namespaces/inkscape"
   xmlns:sodipodi="http://sodipodi.sourceforge.net/DTD/sodipodi-0.dtd"
   xmlns="http://www.w3.org/2000/svg"
   xmlns:svg="http://www.w3.org/2000/svg">
  <sodipodi:namedview
     id="namedview121"
     pagecolor="#ffffff"
     bordercolor="#666666"
     borderopacity="1.0"
     inkscape:pageshadow="2"
     inkscape:pageopacity="0.0"
     inkscape:pagecheckerboard="0"
     showgrid="false"
     inkscape:snap-text-baseline="false"
     inkscape:zoom="1.5626667"
     inkscape:cx="57.913821"
     inkscape:cy="136.30546"
     inkscape:window-width="2560"
     inkscape:window-height="1027"
     inkscape:window-x="-8"
     inkscape:window-y="-8"
     inkscape:window-maximized="1"
     inkscape:current-layer="svg119" />
  <defs
     id="defs87">
    <clipPath
       id="a">
      <path
         d="M 169 108.414062 L 210 108.414062 L 210 133 L 169 133 Z M 169 108.414062"
         id="path66" />
    </clipPath>
    <clipPath
       id="b">
      <path
         d="M 210 108.414062 L 251 108.414062 L 251 133 L 210 133 Z M 210 108.414062"
         id="path69" />
    </clipPath>
    <clipPath
       id="c">
      <path
         d="M 252 108.414062 L 278 108.414062 L 278 133 L 252 133 Z M 252 108.414062"
         id="path72" />
    </clipPath>
    <clipPath
       id="d">
      <path
         d="M 95.890625 109 L 169 109 L 169 133 L 95.890625 133 Z M 95.890625 109"
         id="path75" />
    </clipPath>
    <clipPath
       id="e">
      <path
         d="M 96 148 L 278.890625 148 L 278.890625 249 L 96 249 Z M 96 148"
         id="path78" />
    </clipPath>
    <clipPath
       id="f">
      <path
         d="M 151.453125 165.050781 L 224.953125 165.050781 L 224.953125 235.519531 L 151.453125 235.519531 Z M 151.453125 165.050781"
         id="path81" />
    </clipPath>
    <clipPath
       id="g">
      <path
         d="M 183 162.796875 L 193 162.796875 L 193 192 L 183 192 Z M 183 162.796875"
         id="path84" />
    </clipPath>
  </defs>
  <g
     clip-path="url(#a)"
     id="g91"
     transform="matrix(1.797292,0,0,1.797292,-149.40504,-142.64675)">
    <path
       fill="#2b2b2b"
       d="m 209.79297,108.92969 h -27.71485 l -12.53125,23.96093 h 26.19922 z m 0,0"
       id="path89" />
  </g>
  <g
     clip-path="url(#b)"
     id="g95"
     transform="matrix(1.797292,0,0,1.797292,-149.40504,-142.64675)">
    <path
       fill="#2b2b2b"
       d="m 250.79687,108.92969 h -27.33593 l -12.53125,23.96093 H 236.75 Z m 0,0"
       id="path93" />
  </g>
  <g
     clip-path="url(#c)"
     id="g99"
     transform="matrix(1.797292,0,0,1.797292,-149.40504,-142.64675)">
    <path
       fill="#2b2b2b"
       d="m 277.75391,108.92969 h -14.42969 l -11.00781,23.96093 h 25.4375 z m 0,0"
       id="path97" />
  </g>
  <g
     clip-path="url(#d)"
     id="g103"
     transform="matrix(1.797292,0,0,1.797292,-149.40504,-142.64675)">
    <path
       fill="#2b2b2b"
       d="M 168.02734,109.30859 H 95.890625 v 23.58203 h 59.230465 z m 0,0"
       id="path101" />
  </g>
  <g
     clip-path="url(#e)"
     id="g107"
     transform="matrix(1.797292,0,0,1.797292,-149.40504,-142.64675)">
    <path
       fill="#2b2b2b"
       d="m 96.273438,236.34766 c 0,6.84765 6.074222,12.55078 13.667972,12.55078 h 155.28125 c 7.59375,0 13.66796,-5.70313 13.66796,-12.55078 V 148.86719 H 96.652344 c -0.378906,-0.38282 -0.378906,87.48047 -0.378906,87.48047 z m 67.957032,-49.82813 c 0,-6.84375 5.3164,-10.26953 12.15234,-6.84375 l 28.85156,13.3125 c 6.83594,3.04297 6.83594,8.36719 0,11.41016 l -28.85156,13.3125 c -6.83594,3.04297 -12.15234,0 -12.15234,-6.84766 z m 0,0"
       id="path105" />
  </g>
  <path
     fill="#2b2b2b"
     d="M 46.436597,157.73971 H 332.1639 V 272.31708 H 46.436597 V 157.73971"
     id="path109"
     style="stroke-width:1.79729" />
  <text
     xml:space="preserve"
     style="font-style:normal;font-variant:normal;font-weight:normal;font-stretch:normal;font-size:112.85px;line-height:242.634px;font-family:Arial;-inkscape-font-specification:Arial;letter-spacing:1.00648px;fill:#ffffff;fill-opacity:1;stroke:none;stroke-width:1.32247"
     x="74.093529"
     y="256.93787"
     id="text1707"><tspan
       sodipodi:role="line"
       id="tspan1705"
       x="74.093529"
       y="256.93787"
       style="font-style:normal;font-variant:normal;font-weight:normal;font-stretch:normal;font-family:Arial;-inkscape-font-specification:Arial;baseline-shift:baseline;stroke-width:1.32247">OFF</tspan></text>
</svg>
